<svg version="1.0" xmlns="http://www.w3.org/2000/svg" width="1706.7" height="898.7" viewBox="0 0 1280 674"><path d="M619 3a552 552 0 0 1-39 9c-3 2-3 6 0 15 1 5 2 7 4 8s3 3 4 6v31a13812 13812 0 0 0-285-11l-39-2c-33-1-35-1-43 4-8 6-22 23-54 64a345 345 0 0 1-21 25l-18 25c-8 11-9 13-14 26a961 961 0 0 1-21 57 2370 2370 0 0 1-33 95c-11 34-12 31 5 32l13 2v144l-3-2h-9c-2 1-2 1-3-1-2-4-4-3-5 1 0 3 0 3-4 3l-8-3h-8c-7 3-12 8-16 16l-6 9c-6 5-7 15-2 23l2 5-6 3c-7 2-10 5-10 14 0 8 3 13 7 16 3 2 6 2 8-1 1-1 0-2-4-6-6-6-7-9-1-8 5 0 9-3 9-7 0-2 0-2 2-3 4-1 6-3 6-7 0-2-1-3-2-3-4-2-11-12-8-12l3 2h9c2-2 1-7-2-10l-3-5c0-1 2-1 4 1 2 1 6 2 6 0l3-3 3-1-3-7-3-7c1-2 3 0 3 3 2 7 8 9 10 3 2-4 3-4 7-2l5 2c3 0 6 5 6 9s0 4-4 4c-5 0-9 1-12 4-3 4-8 13-10 23-2 7-3 9-6 11-5 4-7 17-3 20 1 1 2 1 4-2 3-3 3-3 1-6l-1-5c1-1 1-1 3 1l3 6c0 3 1 4 4 3 6 0 10-1 12-4l2-1 2 1 2 2c1 1 1 2 3 2l1-23c0-18 1-22 2-23 2-2 1-3 4 9 1 6 1 13-1 21-2 9-1 16 1 16s3-1 3-4c2-8 5 0 5 15 0 13-1 16-5 17-8 3-6 9 1 9 3 0 5-1 7-3 3-2 3-2 5 0l2 3 1 3c2 1 2 1 4-1l3-2c1 0-4-8-8-11l-3-3V519l2-138 1-19 7-22a456 456 0 0 0 15-47 476 476 0 0 1 19-54 875 875 0 0 0 20-52l6-7 14-17 14-17a1446 1446 0 0 0 49-59l3-1c2-1 2-1 4 2l22 25 52 59 3 12 4 12 7 20a1293 1293 0 0 0 29 85l14 42c4 9 4 10 3 19-1 16-2 277-1 280 1 4 3 3 5-2l1-37 3-242v-10h19l149 4 125 3 106 3 55 2 77 2 95 2a44365 44365 0 0 1 205 7l-1 7v25a4088 4088 0 0 0 0 214c2 2 5 0 6-3l1-86a3189 3189 0 0 1 4-151v-4h4l10-2 6-2c2-2 3-8 0-11l-3-8-4-9-3-11-9-23-7-20-8-22-10-28c-5-19-11-34-15-41a2471 2471 0 0 0-89-102c-4-2-37-4-114-7a15239 15239 0 0 1-262-13l-1-23c-1-25 0-26 5-26l4-1c1-2 1-10-1-15-2-8-3-8-26-9l-34-2c-23-2-34-1-48 2zm72 5 28 2c1 1 2 8 1 9h-10l-36-3-29-1c-2-1-3-1-3-3l1-4h48zm-80 9-1 2c-1 1-19 5-21 4l-1-4v-3h9l11-1 3 2zm29 7-3 3-22 6c-2 2 0 2 10 1l12-1c5 0 3 4-2 6-4 2-4 4 1 4 3 0 4 0 4 2l-9 3-11 3c-3 2-2 4 0 3l9-1c11 0 15 3 6 7-4 2-4 4 0 4l4 1v13c0 3 0 3-6 2-7 0-17-5-18-8 0-3-6-4-10-2-3 2-9 3-9 1 0-1 2-3 5-3s5-2 4-3h-6c-4 0-4 0-4-2l6-3c9-2 13-3 13-5h-14c-4 1-4 1-4-1l4-3c7-2 6-6-2-5-3 1-4 1-2-3 1-3 1-3 5-3 6 0 9-1 9-4l-7-1c-6 0-7 0-7-2 0-3 2-4 7-4l18-4c15-4 19-4 19-1zm52 0 17 1c2 1 2 4 2 40-1 38-1 39-3 39l-29-1c-34-2-34-2-33-12l2-33c0-30 1-34 3-34h41zM255 67h15l5 4 4 5h-25l-13-1-4-4c-5-6-5-6 0-6l18 2zm44 2 7 5c4 4 8 3 3-1-3-4-1-4 21-4 25 1 36 2 41 5l4 2 2-2c2-2 3-2 8-2 7 0 10 1 10 2l2 4 2 3h-36l-45-2c-33-1-34-1-36-5-1-4-1-4 1-5h16zm140 6 2 1 2 4 2 4-18-1c-19 0-19-1-24-7l-2-3h18l20 2zm29 1c4 0 5 1 7 4l2 4-13 1h-12v-3l-3-5-2-2h8l13 1zm46 2h15l2 4 3 4-48-1c-2 0-2-4-1-6 0-2 5-2 29-1zm58 2c4 1 11 6 11 8h-17l-6-1h-15c-1 0-5-5-5-7h32zm46 3 6 5c3 4 1 4-16 3l-16-1-3-5-3-4h14c11 0 14 0 18 2zm-346 5 3 5c-1 2-15 1-18 0-3-2-8-8-8-10l9-1 9 1 5 5zm33-4c24 2 26 2 29 4 5 4 5 4 5 0-1-2 0-3 2-2l7 3 7 6 3 1-6 1h-20c-16-1-18-1-24-8-5-5-7-4-3 2l2 4h-12c-14 0-15-1-19-7-3-6-5-6 29-4zm60 3 5 4 6 5c3 1 3 1 4-1l-1-4c-1-2-1-2 1-3l31 1 29 1 6 5 4 5-2 1h-10a2226 2226 0 0 0-77-4l-2-6c0-5 0-5 2-5l4 1zm407 1c75 3 106 5 108 6 3 1 7 5 7 7s-26 0-30-1l-5-3c-2-3-4-2-5 1l-1 3-7-1c-12-1-15-1-19-4l-6-2c-2-1-3 0-3 2 0 3 0 3-8 3a131 131 0 0 1-37-5c-6-3-6-3-9 1-3 2-3 2-11 2-6-1-9-1-11-3-5-3-7-3-8 0-1 2-4 3-6 1-1-2-2-7 0-8 1-1 0-1 51 1zm-294 3 28 2c8 0 8 0 11 4l5 5 1 2h-16l-20-2c-3-2-3-2-5 0l-12 1-9-1-5-5c-6-7-6-7-2-7l24 1zm67 3 35 2 19 1 5 3c6 4 10 4 10 1s0-3 9-3l10-1 4 5 6 4 4 1c2 1-22 1-72-1l-44-1-5-5-4-6h23zm409 2 27 1-3 3-3 4c0 1-6 2-19 1s-17-1-17-3-4-2-7 0c-4 2-4 2-20 1l-16-1-3-3-3-4c0-1 13-1 64 1zm103 5c30 1 35 2 37 6 3 5-9 5-16 0l-4-3-5 3c-5 3-4 3-35 1l-27-1-14-1-3-3-4-4c0-2 28-1 71 2zm-757 5 6 5c3 2 3 0 1-3-2-4-3-5 0-5h14c2 0 8 10 7 10l-26 1h-26l-6-5-5-7c0-2 3-2 16-1h13l6 5zm437-1 9 3h2l-2-3-2-2h12l16 2h29c17 1 18 1 25 4 9 4 13 4 9 0-1-2-1-2 7-2s8 0 13 4 5 4 3 5h-27a8328 8328 0 0 0-113-5h-5l3-1c3-1 3-1 3-4-2-5 8-6 18-1zm-352 0h18l4 4c4 4 8 5 8 2l-1-3-1-1 13-1 37 2a227 227 0 0 1 32 2c2-2 5-1 10 4l4 5-2 1h-23l-20-1-2-3-3-3-2 3c-2 3-3 3-9 3l-25-1a4610 4610 0 0 0-91-5l2-1c1 0 1-1-2-5l-3-4h19l37 2zm522 4 30 2c3 1 10 8 9 9l-56-3-9-5c-3-3-4-3-6-2l-1 4c1 2 1 3-2 3-3 1-9 0-9-1 1-1 0-3-1-4l-1-3h46zm-357 2c29 1 29 1 32 6l3 5-8 1h-9l-2-4-5-4c-3-2-4 0-2 3l1 3-20 1c-22 0-21 0-25-7-4-6-3-6 35-4zm436 4c6 2 12 2 11 1 0-2 3-3 11-3l12 1c4 2 8 7 6 8-1 1-50-1-63-2-9-1-10-2-12-6v-3h15c12 1 15 2 20 4zm-368-1 19 2 4 5 4 4a3927 3927 0 0 1-46-2l-11-10 30 1zm69 3 15 10-44-1c-4 0-5-1-10-5l-5-6 44 2zm358-2 4 1 1 3c4 7-11 7-18-1l-2-3h15zm29 2 8 3c3 1 3 1 5-1 1-2 2-2 6-2 6 0 15 4 15 7l-23 1-24-1-3-3c-6-5-6-6 3-5l13 1zm-787 2a284 284 0 0 0 38 3l-1 2c-1 1 0 3 2 5l2 4-15 1-16 1c-2 1-8-1-9-4l-3-4c-4-6-8-10-6-10l8 2zm471 0 44 2h15l2 5 3 5c1 2-4 2-10 1-3-1-7-2-10-5l-8-3c-2 0-3 2-2 4 2 3 1 3-8 3s-10 0-13-3c-2-3-7-6-8-6s-1 3 1 5c1 3 1 3-1 3-3 1-27-1-28-2l-14-1h-13l-3-4-1-5 13-1 41 2zm-399 4c3 0 6 2 10 4l7 5c4 2 4 0 1-4l-3-5 8-1c10 0 13 1 13 3l5 7c3 4 4 4 6 4 4-1 4-5-1-8l-3-4 12-1h12l2 4c3 4 9 8 10 7l-2-4c-4-6-3-6 7-6 12 0 16 1 20 4l5 4c3 0 3 0 3-3l-1-4 15 1c14 0 18 1 18 3l3 6 2 6a296 296 0 0 1-61-3l-17 1-41-2c-46-2-50-2-53-4l-6-11 28 1zm499 0c18 1 24 1 28 3h7c4-4 13-2 16 4l3 3 1 1-18 1-38-1-20-1-6-5-6-6h6l27 1zm109 3a533 533 0 0 1 101 6c3-2 4-2 21-1l23 1c3 0 4 0 7 5l3 5c-1 2-24 0-28-1-3-2-3-2-5 0-3 1-11 1-43-1-10 0-10 0-15-4l-5-4-1 4-1 3h-9c-8 0-10 0-14-3-5-2-5-2-7-1-2 2-4 2-27 2h-33c-8-1-9-1-13-5-3-2-5-5-5-6h51zm-412 2 18 1 91 3 10 1 3 4c4 5 9 8 11 8s1-3-1-7l-2-3c0-2 4-2 24-1s21 1 26 4c5 2 7 3 8 2v-2c-1-3 24-2 29 0 2 2 3 2 5 1 3-2 19-3 27-1l7 1h31l29 1 4 4c4 3 9 5 13 3 2 0 2 0-1-3l-3-3h27l41 2c15 1 18 2 19 7l3 4v3c-3 2-11 0-17-5l-6-3c-2-1-3 0-3 3l-2 4h-20l-19-1-3-4c-5-4-9-4-8-1 1 2 0 3-1 3-3 2-18 1-23-1h-8l-22 1-70-3a1628 1628 0 0 1-86-2c-39-1-49-2-49-4 0-3-9-10-13-10-2 0-1 3 2 6l2 5a513 513 0 0 1-69-5l-9-5 1 4 1 4-17-1-19-1-2-4c0-3-5-8-7-8l-1-1h49zm-178 14 46 2 27 1 4 4c3 3 4 4 7 4s4-2 2-4a513 513 0 0 1 107 2c4-2 34 0 35 2l4 5 4 5-8 1a2279 2279 0 0 1-156-8c0 2 0 2-10 2-9-1-9-1-12-4l-8-5c-2 1-1 4 0 5l2 2c0 2-19 0-24-1-3-2-5-2-6-1-3 1-14 2-35 0h-18l-3-4-7-3c-2 0-2 0-2 3l1 3h-18l-5-4c-4-5-5-7-2-7h75zm621 4 6 2c4 1 4 1 5-1 0-2 1-2 9-2 6 1 10 1 13 3 6 2 9 3 10 0l23-1h24l2 3c4 4 10 8 12 8s3-3 1-6v-3h14c13 0 14 0 15 2 2 2 1 2-1 2-4 0-4 1-3 6v3l-37-1-69-2-34-1-6-6-8-6-2-1c0-2 23-1 26 1zm-362 6 16 2 9 11h-15c-19 0-20 0-24-4l-7-6c-4-3-4-3-2-3h23zm43 2c3 0 4 1 5 2l5 6 4 5-12-1-10-1-6-5-5-6c0-2 7-2 19 0zm31 0 8 5 8 5c2 0 5-4 4-6l-1-3a1895 1895 0 0 1 153 7c4-2 6-2 12-2l12 3c4 2 4 2 6 1l6-2c4 0 5 0 8 6l4 6a771 771 0 0 1-71-3c-10-8-10-8-13-6v4l2 3h-7c-7-1-8-1-13-5-5-5-8-6-11-4-1 1-1 1 1 4 3 4 2 4-15 3h-13l-6-5-8-5c-2 0-2 3 0 5v3c-1 1-41 1-65-1h-12l-4-6-2-7h18zm-372 8c3 2 6 2 6 0l8-1c7 0 9 1 11 3 3 3 9 5 10 3v-2c-3-4 0-4 10-4 11 1 13 2 18 8 2 2 2 3 1 4h-4l-57-2h-16l-2-4-5-5-2-2h10c7 0 10 1 12 2zm81 1c4 0 5 0 10 5 8 7 7 7-6 7l-12-2c-2 0-8-10-7-11h6l9 1zm538 1c4 2 10 2 13 0h25l26 1c3 1 5 5 2 6l-1 3c0 2 0 2-11 3a669 669 0 0 1-66-4c-4-2-11-9-11-10 0-2 19-1 23 1zm-493 4c6 4 7 4 7 2l-1-3-1-1 16-1 16 1 4 5 3 5-25 1c-30-1-39-2-40-5l-4-4-2-3 10-1c9 0 9 0 17 4zm579-1c5 1 12 8 12 10l-7 1c-9 0-12-2-18-9l-3-4h6l10 2zm-503 2c3 1 12 9 11 9-1 1-32-1-33-2-3-2-6-8-5-9 1-2 23 0 27 2zm533-1 10 7 6 4h-13l-14-2-2-5c-4-5-2-6 5-6l8 2zm57 1h19l4 5c7 7 7 7-13 7a381 381 0 0 0-47-2l-2-1-3-5-3-5 13-1 32 2zm-560 0c3 1 9 8 8 10l-10 1c-8-1-9-1-13-5-6-6-5-7 4-7l11 1zm38 1c5 0 5 1 6 3l3 5c4 3 2 3-15 3l-16-1-1-3-3-5v-2h26zm30 3 4 2 4 4 4 3h-10c-10 0-14-1-14-2l-3-5c-2-2-3-4-2-5s14 1 17 3zm47 4c8 7 7 7-10 6-18 0-21-1-23-4l-3-4-1-3 17-1 16 1 4 5zm50-3 13 1 3 3 5 5c2 0 2 1 2 2a218 218 0 0 1-63-3l-3-6-2-3h16l29 1zm68 2 23 2c3 2 4 2 5 1 4-2 20-2 26 0 4 2 5 2 9 1l20-1c15 0 16 1 20 3 8 5 14 5 14 0 0-2 0-2 14-2a2974 2974 0 0 0 64 3c6 0 6 0 9 5l3 4-9 1a7030 7030 0 0 1-235-10c2-1 1-3-1-3s-4-3-4-4h42zm-459 7c9 0 9 0 10 2 2 5 0 5-10 4-14-2-15-2-15-4s2-3 5-3l10 1zm689 2c4 1 6 2 8 1h61l17 1 5 4 5 5h-27c-24 0-27 0-29-2-13-10-13-10-10-1v2l-20-1c-18 0-21-1-23-2l-9-9 22 2zm-647-1c2 1 5 6 4 7s-21 0-23-1-4-5-3-6h22zm35 2c2 0 2 1 2 3v3h-11l-14-1c-3-2-4-6-1-6 2-1 21 0 24 1zm53 1c9 0 17 1 17 2l2 3v2h-28l-29-1c-2 0-6-4-6-6h44zm683 1h9l3 4 2 5h-31c-4 0-5-1-4-2s1-2-2-4c-2-1-3-3-2-3h25zm-635 1c2 1 2 2 0 4s-4 3-7 3c-6 0-10-2-13-5l-3-3h11l12 1zm44 1c4 0 6 5 3 7-2 2-9 1-14-2-3-2-3-2-5 0l-8 1c-7 0-11-1-14-5l-1-2h18l21 1zm31 2c2 2 1 5-1 5-6 3-20-1-20-5 0-2 19-1 21 0zm33 2c2 4 2 5-8 5s-10 0-14-4l-3-3h12c11 0 12 0 13 2zm30 1c4 5 3 5-8 5-10-1-11-1-14-4l-3-3 12-1c10 0 11 1 13 3zm32-1 2 4 1 3h-11c-12 0-16-1-16-4 0-2 3-3 11-4 4-1 12 0 13 1zm27 1 1 4v3h-6c-8 0-11-2-12-5v-3h8l9 1zm29 1-2 1c-1 0-2 1-2 3s-1 2-7 2c-5 0-6 0-9-2l-3-4 12-1 11 1zm31 1 3 6h-23l-8-6c0-2 27-1 28 0zm35 1 2 4v3h-8c-10 0-17-1-18-3l-1-4c0-2 0-2 12-1l13 1zm35 0h11v4c0 5 0 5-19 4-16-1-17-1-19-6l-1-3h8l20 1zm-492 3 21 1 1 5 1 3h-19c-21-1-24-1-27-7-2-3-1-4 1-4l22 2zm545-1c0 1-2 7-4 7h-14c-13 0-13 0-16-3s-3-3-2-4h36zm67 2c10 1 12 2 12 6v2h-16c-15-1-17-1-20-3l-4-2-2 2c-2 2-3 2-15 1h-13l-4-4-4-4h28l38 2zm-529 1 2 6v3h-25l-24-1-5-5-5-5h27l30 2zm576 1 1 4v2l-13 1c-15 0-17-1-17-6v-3h14l15 2zm-538 1 1 4 1 3-15 1c-16 0-14 1-16-7l-1-3h14c13 0 15 0 16 2zm567-1c9 0 11 1 11 6v2h-12c-13-1-17-2-18-5s1-4 7-4l12 1zm-490 6c4 5 5 5 8-1l1-3h8l62 3a2181 2181 0 0 1 157 9l3 3h-5c-6 1-29 1-117-2a8024 8024 0 0 0-184-6h-3l3-1c3-1 3-1 1-6v-2l31 1h31l4 5zm533-4c16 0 17 0 19 2 3 5 2 5-16 5l-21-1c-4-1-6-3-6-6a448 448 0 0 0 24 0zm48 2 2 3c0 2-1 2-7 3-10 0-18-3-17-7l11-1 11 2zm34 1h12v6h-17c-17-1-17-1-19-3l-2-3h26zm-346 6c3 0 4 0 4 2l1 4c0 2-1 2-13 2-18 0-18-1-19-6v-4l11 1 16 1zm67 2c12 1 15 1 17 3 4 3 6 3 7 0 1-2 2-2 14-2 14 0 15 1 15 6v2h-11l-90-3c-4 0-5-1-7-3l-2-4 57 1zm79 3 1 3 1 3h-12l-12-1 3-1 2-3 1-2c1-1 15 0 16 1zm22 0c3 0 8 5 6 7l-8 1h-9l-1-4-1-4h13zm-646 1h6c5-1 55 0 58 2 3 1 3 5 0 6h-18l-29-4h-4c-2 1-9 2-13 1-3 0-4-1-5-2-1-4 1-5 5-3zm698 0c11 0 18 1 20 2 1 1 2 1 5-1 6-3 23 1 25 5l-1 3-83-2c-2 0-3-1-4-3v-4l10-1 28 1zm-554 3 51 2h11v8h-21l-94-4c-14-1-15-1-17-6v-2h15l55 2zm686 1c8 1 10 1 11 3l2 3c0 2-79 1-83-1l-4-4-1-3h33l42 2zm-580 2c12 0 23 1 23 2l1 4 1 3h-16c-45-2-44-2-47-5l-2-4h40zm57 4c4 5 5 5 5 1v-3l24 1 26 1 2 4c0 3-2 5-6 4a847 847 0 0 0-75-4l-2-4v-3h24l2 3zm111 2c4 1 5 4 2 6h-28c-4 1-20 0-21-2v-6h22l25 2zm31 1c5 5 1 8-11 6-5 0-6-1-8-3-4-4-3-5 8-5 8 0 9 0 11 2zm47 0 29 1c3 1 5 4 5 7 0 2-35 1-38-1h-21c-7 0-8 0-9-4l-1-4 35 1zm-494 2 7 2c4 0 5 0 7 3l2 2 2-2c2-2 4-2 13-2h11v7h-20l-20-1c-2 0-7-11-5-11l3 2zm563 2c4 1 5 4 3 5l-15 1-13-1-2-3c-1-2-2-3-1-4 1-2 25 0 28 2zm69 0 90 3c2 1 2 3 0 5s-4 2-48 1l-72-2-25-1-2-2c-4-6-5-6 57-4zm-513 3 49 3c4 0 8 3 8 5a610 610 0 0 1-104-2h-16l-5-3-4-4 72 1zm633 1h17c9 0 12 2 12 6l-24 1c-24-1-24-1-26-3-4-4-3-5 8-5l13 1zm73 1c19 1 22 1 22 6-1 2-1 2-5 2a7880 7880 0 0 0-51-2l-1-4-1-3h9l27 1zm-615 2c2 1 3 2 4 1 1-2 34-1 36 1 3 3 0 5-9 5l-53-2c-3 0-5-4-4-5 1-2 22-1 26 0zm106 3c18 0 20 0 22 2l2 4-10 1-39-2c-30 0-34-1-34-5 0-2 3-2 59 0zm75 4 3 2c-1 2-47 1-48 0l-2-3v-2h22c18 1 23 1 25 3zm73 0c17 1 19 1 22 3 3 3 8 3 9 0 1-2 2-2 9-2h7v3c0 3 0 3-4 3l-95-3c-10 0-13-2-11-5l22-1 41 2zm98 2a539 539 0 0 1 92 4h54l98 3c46 1 48 1 47 5-1 2-2 2-8 2-9 0-19-2-23-4h-5c-4 3-25 3-54 2a7238 7238 0 0 0-142-6h-5a316 316 0 0 1-65-1h-30c-3-1-5-4-3-6h12l32 1zm-481 4c7 0 7 0 8 4 2 4 4 4 5-1 0-3 0-3 6-3 7 0 13 1 14 3l1 4c0 2 0 2-12 2l-30-1a1468 1468 0 0 0-68-4c-2-3-1-5 2-5 5-1 66 0 74 1zm65 2 6 1 2 4v3h-12l-14-1c-3-1-7-5-6-7h24zm81 3 2 5 1 2-32-1-34-1c-2-1-3-6-1-6l32-1h31l1 2zm53 0c28 1 31 1 31 5 0 2-1 3-3 3a571 571 0 0 1-70-2l-2-5v-2h9l35 1zm126 3c68 2 94 3 98 5 2 1 3 2 3 4v2h-30l-3-4c-5-4-8-4-7 1 0 2 0 2-14 2l-16-2a344 344 0 0 1-96-2l-12 1-13-1c0-1 0-3 2-5l1-3h11l76 2zm154 7c-2 6-2 6-23 5-18-1-20-1-21-3-4-5-2-5 22-5h22v3zm49-1c10 0 10 0 14 4l4 4h-13l-31-1h-17l-2-3-2-4h46zm61 2 2 4v3h-20l-21-2-1-4-1-3 20 1 21 1zm43 0c1 1 0 6-1 7h-33v-4l1-3 33 1zm22 1c8 1 10 2 10 4 0 3-3 4-14 3-9 0-10-1-13-7h17zm-708 2 1 4c0 2 0 2-8 2s-8 0-9-3c-2-4-1-5 9-5 5 0 7 0 7 2zm45 0 1 4v3h-10c-14 0-26-2-27-3-2-3-1-5 2-5 5-1 32 0 34 1zm76 1 51 2c2 1 2 2 2 4s-1 2-5 3l-110-3c-4-1-4-1-5-4v-4h9l58 2zm625 0 2 4-9 1c-9-1-10-1-12-3l-3-3 10-1c9 0 10 0 12 2zm40 0c7 0 10 2 9 4s-3 2-18 2c-18 0-18 0-21-6l-1-2h13l18 2zm46 4 1 3h-13l-15-2c-2 0-3-3-1-4l14-1h13l1 4zm-628 0 2 4v2h-11c-7 0-12-1-13-2l-2-3v-3h11c8 0 12 1 13 2zm21-1c4 0 6 1 8 3 4 4 2 5-8 5-11 0-12-1-13-5v-4h4l9 1zm34 1c2 1 3 2 3 4v3h-8c-9 0-9 0-10-3s-1-4 1-4h14zm54 2h32v2c2 6 4 5-36 5l-37-2-1-4v-3h19l23 2zm53 1c2 1 2 3 2 4 0 2-1 3-8 3h-8v-7h14zm43 3c5 4 6 4 6 0l-1-3 12 1c16 0 17 1 21 4l3 2 2-2c2-3 2-3 25-3h26c2 1 2 2 2 4 0 3-1 3-3 4h-31l-92-4-3-4-1-3 15 1c14 0 15 0 19 3zm158 2 3 4 1 3h-13l-28-1h-16v-8h25l28 2zm78 1c43 1 45 1 48 3 2 3 4 3 3 0v-2h24l59 3 2 5v3h-19l-55-2-125-4c-2-1-3-2-3-5v-3h11l55 2zm-570 4h9v8h-6l-88-2-1-4c0-3 0-3 4-3 6-1 70 0 82 1zm763 4 2 5-25-1h-24l-1-3c-2-4-2-5 0-5l24-1h22l2 5zm-713-2 1 4v3h-14c-20 0-22-1-21-7l1-2 16 1 17 1zm122 2 38 2 2 4v4h-15a10414 10414 0 0 0-131-5c-5 0-6-1-7-5l-1-2h38l76 2zm96 2a8590 8590 0 0 1 152 7l-2 4v2h-14c-13-1-14-1-17-3l-3-2-2 2-1 2-37-1-79-2c-38-1-43-1-44-3v-6l10-1 37 2zm206 6 1 4v4h-22l-21-1-3-3-3-4h48zm45 2 3 1-1 4v3h-6l-18-1c-8 0-11 0-12-2-3-2-2-6 0-6 2-1 28 0 34 1zm42 1c4 0 5 1 5 3 2 5 1 5-18 4-16-1-20-2-22-4-2-4-1-4 15-4l20 1zm50 1h18l1 4v3h-38c-16-1-19-2-19-5s0-3 10-3l28 1zm-665 2 1 4 1 3h-25l-2-3c-2-6-2-6 12-5l13 1zm34 0 1 5 1 3-9 1c-13 0-16 0-18-5l-1-4c0-2 25-1 26 0zm696 0c1 1 3 2 3 4s0 2-11 2l-18 1c-7-1-9-1-10-3-4-5-3-5 16-5l20 1zm-620 2h24l1 4c2 5 1 7-3 6a1179 1179 0 0 0-85-3c-4-1-4-1-5-5v-4h22l46 2zm714 1v6l-74-2c-10 0-11-1-10-4v-3h41c38 1 42 1 43 3zm-655 1c2 0 1 7-1 8-1 2-11 2-20 0-3 0-4 0-4-4v-4c1-2 23-2 25 0zm38 4 2 5-29 1c-6-1-7-3-3-5l4-3c0-2 1-2 12-2h13l1 4zm27-3c4 0 6 1 8 4 4 4 6 3 6-1v-3h11a1831 1831 0 0 0 75 3h7l1 5 2 5h-8a2984 2984 0 0 0-117-4c-2-1-4-5-4-8 0-2 1-2 7-2l12 1zm153 5c3 2 3 2 5 0l20-1a315 315 0 0 1 34 3c26-1 149 1 152 3l3 5 2 4h-15c-14-1-15-1-19-3-5-4-6-4-8-1-1 3-1 3-12 3-13 0-23-1-25-4h-5c-6 3-12 3-38 2a4640 4640 0 0 0-132-4l1-2v-4l-1-2 17-1c15 0 17 0 21 2zm270 6 4 2 1 4v3h-11c-10 0-11 0-12-3-2-2-6-3-6 0-1 1-2 2-8 2-13 2-15 1-17-2v-6h49zm53 2c2 3 1 7-1 7l-31 1c-6 0-6 0-9-4l-3-6h21l23 2zm-690 0 31 2c9 0 9 0 11 3 3 7 4 6-27 6l-40-2c-11 0-12 0-13-3l-1-5v-2h8l31 1zm757 1c2 0 3 0 2 1v3c2 3 1 5-2 5-5 1-16-1-21-3-4-2-4-2-6 0s-3 2-15 2c-14 0-16-1-17-6v-4h28l31 2zm53 2c3 8 3 8-6 8s-9 0-10-3c-2-4-6-4-7-1l-1 3c-2 2-13 1-16-1l-6-8h20l22-1c2-2 3-1 4 3zm-742 3c2 5 2 6-4 6l-10-1c-5 0-5 0-5-4l1-3 9-1c8 0 8 0 9 3zm24-1c2 3 1 7-1 8-5 3-17-5-13-9 1-2 13 0 14 1zm71 0 29 1 3 3 1 4v2h-37l-61-3 2-3c2-1 2-2 1-2-3-3 0-3 16-3l46 1zm56 3 2 5v3h-8c-9 0-10-1-13-5-4-5-3-5 8-5l11 2zm44 0h8l1 4c2 4 2 4 1 5a260 260 0 0 1-47-3v-4l2-2h35zm38 2c3 2 6 5 5 8l-10 1c-14-1-15-2-17-6l-2-4h10l14 1zm40 0c6 0 9 1 11 3 3 2 4 5 2 6-1 1-30 0-38-1-3 0-4-1-6-4l-2-5 33 1zm46 1c4 1 5 2 8 5 4 5 6 5 6-1v-3h16c14 0 16 1 19 3s5 2 5-1c0-2 3-2 18-1h7l2 5v4c-1 1-86-1-100-2h-10v-10h12l17 1zm116 4c0 2 7 8 8 8l1-4-1-4 5-1c8-1 25 1 32 3 6 2 7 2 8 1s5-2 20-2c24 0 24 0 26 5l2 5-117-3h-11l-1-4v-5l14-1 14 2zm165 4 4 2c1 2 4 6 6 6l1-4v-4h13c18 0 20 0 22 5l1 5c-1 1 0 1-59-1l-43-1-2-4-2-5 59 1zm64 1 7 9h-16v-8c1-1 5-2 7-1h2zm38 5 5 5-10 1c-18 0-22-1-22-8v-3h23l4 5zm40-3c7 1 9 2 9 7 0 2 0 2-10 1h-9l-11 1h-9l-2-4-2-5h34zM73 539c2 2 2 3 2 10 0 8-1 11-4 11s-3 0-2-4c0-3 1-5 3-6 2-2 3-6 1-8l-4-1-4-2c0-3 5-3 8 0zm-14 26c2 1 4 10 3 16-1 4-2 3-4-7-3-10-3-11 1-9zm-7 8 2 16c3 14 2 16-1 6-3-9-5-20-4-24 1-5 3-3 3 2z"/><path d="M618 39c-6 2-11 5-11 6s2 1 11-1 11-3 11-5h-11zM615 61c-7 3-7 6 1 4 9-2 11-3 11-5s-7-1-12 1zM624 70c-5 3-5 4 0 3l10-4c-1-2-5-1-10 1zM282 235l-11 2a1858 1858 0 0 0-85 11l-2 21v64c1 1 18-1 24-3l18-2 19-3 19-1c16-1 26-2 27-4 1-1 2-13 2-36a819 819 0 0 1 0-47c-2-2-10-3-11-2zm-18 9-6 1h-4l3-1 6-1c2 0 2 0 1 1zm21 2c0 2 0 2-6 2-8 0-9-1-4-4 5-2 9-1 10 2zm-25 7 2 12-1 13c-2 3-7 5-12 5h-3l1-13c0-15 1-17 5-17h8zm-19 13c0 17 0 17-7 18l-6 2-3 1-1-15 2-17 8-1h8l-1 12zm43-11c2 3-1 5-7 5-5 0-6-1-3-4 2-2 8-3 10-1zm-68 5-1 1v-1l1-1v1zm-16 4c0 2-1 3-3 4l-4 2c-2 0-1-4 1-6 2-3 5-2 6 0zm17 27-1 27c-1 0-2-8-2-22 0-23 1-35 2-33l1 28zm68-23c0 2-1 2-6 2l-7-1c0-1 5-3 9-3 3 0 4 0 4 2zm-86 8c0 3-1 5-3 5-5 0-5-3 0-5h3zm86 1c1 1-1 3-7 3-5 1-6 1-6-1l2-2h11zm0 11-7 2c-7 0-8-1-2-3l6-2c1 0 3 1 3 3zm-27 0h4v14l-1 15-9 1h-7v-6l1-14c0-11 2-12 12-10zm-18 1 1 16v14h-3c-12 2-12 2-13-2v-26l7-2 6-1 2 1zm44 7c3 2-1 4-7 4l-5 1 1-2 5-3h6zm-84 5c0 2-3 5-7 5-2 0-2 0 0-3 2-5 6-6 7-2zm86 7c1 2-2 4-9 4-6 1-6 1-5-1 3-4 12-7 14-3zm-87 5c0 2-5 4-8 4v-2c3-3 8-4 8-2zM815 394l-16 1a303 303 0 0 0-42 6c-6 1-12 5-23 16-12 13-19 24-19 31v2h17v16a1319 1319 0 0 0 4 137c2-8 3-36 5-82 1-48 2-66 4-70l8-1h7l1 12v15c-1 3-1 3 13 5 11 1 23 0 27-1 4-2 5-7 5-21l2-12 4 5 5 5c3 0 4-3 1-6l-3-3-5-8c-4-3-6-6-5-6 4 0 16 13 16 17l1 5a4916 4916 0 0 0 0 134v47h-25l-51-2-27-1 2-4 2-4 1-3c3 0 4-6 4-10-1-6-4-10-8-10h-3v-7c1-11 0-12-2-11-2 0-3 0-5-3-2-4-2-4-1-7s0-7-3-7l-13 1c-7 2-9 7-4 9l2 2c0 2 2 3 6 3l4 3 5 2c2 0 2 0 2 7 0 8-3 23-6 30l-2 7v3h-24l-5 5c-2 4-4 5-7 6l-6 3c-4 4 0 5 5 3 5-3 7 0 2 4l-5 7c-3 10 3 9 11 0 5-6 6-7 6-13l2-7c2-1 36-2 44-1l7 1v6c1 7 3 12 6 12 4 1 5-1 5-10v-8h3l16 1h17c2-2 8-2 44 0 37 1 46 2 46 4l-41-1h-41v9l2 10a765 765 0 0 1 109 5c4-1 5-5 6-14 1-7 1-8-12-8-10 0-10 0-10-2 0-5-3-7-18-8-8 0-14-1-14-2-5-4-7-28-5-60l1-71v-48h4c21 0 32-3 32-6l3-4c7-7 2-24-12-40-6-7-9-9-15-12l-8-4h-17l-16 1zm25 7 9 3c10 5 19 13 21 18 1 4-2 2-7-4-3-5-6-7-11-9-6-3-7-3-18-3-16 0-25 2-32 9-6 6-13 16-13 21l-1 4h-5l-5-1 4-11c4-8 6-10 13-17 8-8 9-8 21-10h24zm-49 3-5 8-9 14c-6 15-7 15-20 14l-32 2c-5 1 6-18 12-21l5-4c1-3 3-3 3 0 0 2 1 2 7 2l19-2c2-3-9-4-13-2h-3c-2-1-2-2 1-5 2-2 4-3 9-4 13-3 25-4 26-2zm52 16h2c2-3 6 2 11 12 4 7 5 11 5 14 0 6-2 5-4-3l-4-9c-3-5-11-14-15-16l-5-4c-2-2-2-2 4 1 4 1 6 3 6 5zm-18-6c0 1 4 5 9 8 11 8 13 11 15 20 1 7 1 9-3 8-2-1-2-2 0-6 0-2 0-2-2-3l-5-7-10-13-7-7c0-2 2-1 3 0zm-13 3 5 3c4 1 16 12 16 14l-2 1c-2 0-5-2-10-7s-8-7-11-8c-4-1-5-2-3-3h4zm4 13 8 10c5 7 2 6-8-3a75 75 0 0 0-10-9c0-1 7 0 10 2zm-24 8 5 1c6 1 5 3-1 3-5 0-8-2-6-4h2zm43 3v21l-2 98v79h-3c-3 0-3 0-3-3 2-8 2-29 3-101a735 735 0 0 1 5-94zm-53 10c2 1 1 4-1 5-9 4-9 5-9 7s0 3 4 3 5 1 6 3c1 3-1 5-6 5-7 0-7-1-7-11l2-10c1-4 9-5 11-2zm15 1c1 3 0 4-2 4-3 0-5-2-5-4 0-3 7-3 7 0zm1 16c0 2-2 5-4 5-3 0-4-4-3-6 2-3 6-2 7 1zm64 188c16 0 31 1 31 2v8l-7-1a751 751 0 0 0-89-4l-1-4c0-2 1-3 3-3 3-1 25 0 63 2z"/><path d="M741 430h-4c-6 2-2 3 6 3 10 0 16-1 17-3l-9-1h-10zM303 439c-29 2-50 4-53 6-2 1-3 5-3 33a167 167 0 0 1-2 30l1 25v23l4 1 8-1c4-1 5-1 6 1 3 6 3 6 18 6l52-4c7 0 9-3 4-5-2 0-1-1 6-2l10-3c2-2 3-107 2-110-1-2-3-2-13-2l-41 2zm47 7-8 1c-5 0-6 0-3-1h11zm-71 50c0 42-1 52-3 46a1448 1448 0 0 1 2-93l1 47zm68-44c3 0 2 3 0 3h-15l6-3h9zm-21 22v22h-4l-31 3h-6v-9l-1-22v-12l4-1c5-2 13-3 14-1l2 1 19-3h3v22zm-57-17v2h-16c-1-2 12-4 16-2zm79 6c0 1-2 2-8 2h-8l2-2c2-2 4-2 8-2s6 1 6 2zm-77 3c0 1-1 2-10 3-5 0-7 0-6-1l2-2h14zm74 4 2 2c0 1-2 2-9 2-6 0-6-2 0-4h7zm-76 4h2l-2 2c-4 2-8 2-12 1h-2l4-2c4-2 6-2 10-1zm79 6c0 2-5 3-10 3-10 0-5-4 5-4l5 1zm-77 4c1 2-1 3-9 3l-8-1 3-2h14zm70 5-6 4c-3-1-3-2 0-4h6zm-71 4c0 1-2 2-8 2-7 1-9 1-8-1 3-2 16-3 16-1zm57 22v30l-17 2-20 1-4-1v-3l-1-5c-2-2-1-32 1-34l30-2h10l1 12zm19-5c0 2-1 3-6 3-7 1-8 1-7-2 0-1 5-3 10-3 2 0 3 1 3 2zm-78 3v2l-14 1c0-2 7-4 10-4l4 1zm79 8v2l-12 2c-4-1-3-3 1-5 5-1 9-1 11 1zm-78 3-6 1-6-1h12zm1 9c0 1-1 2-9 2-9 0-9 0-8-2 2-2 5-3 12-3 4 0 5 1 5 2zm76-2c0 1-1 2-8 2-5 1-7 0-3-2h11zm0 10c0 3-5 4-10 3-4 0-4-1 0-3 4-3 10-2 10 0zm-22 13c0 2-5 2-22 2-19 0-26-1-11-2h33zM461 441c-7 3-6 2-6 59l1 53 15 1c15 0 32 2 34 3 1 1-2 3-5 3s-3 5 0 6l91-1c4 0 4 0 1-4l-2-3h4l26-1h22v-5l1-101c-2-2-8-3-26-4l-24-2-46-2a4067 4067 0 0 1-86-2zm82 8c0 2-7 3-19 2-13 0-16-1-15-2l17-1 17 1zm50 2c3 2-1 2-15 2-15 0-29-1-30-3-2-2 42-1 45 1zm-101 0c2 1 3 4 1 5-1 1-27-1-28-2v-2c1-1 4-2 13-1h14zm48 6c2 1 2 7 2 29 0 14 0 13-9 13l-16-1c-11-1-11 0-10-24v-18h12a545 545 0 0 0 21 1zm32 1h10v5c1 9 0 35-1 36l-16 1-16-1-1-16c-1-17 0-22 2-22l1-2c0-2 2-3 7-2l14 1zm60 1c6 1 3 2-6 2-14 0-23-2-17-3 2-1 18 0 23 1zm-41 20-1 22v21l-1 24-1 3-1-5v-18a712 712 0 0 1 2-68c1 1 2 7 2 21zm-98-17c2 1 0 4-2 4a326 326 0 0 1-25-4h27zm141 6v3l-15 1h-14v-3c0-3 0-3 7-3l14-1h8v3zm-143 4c2 0 3 1 3 2s-14 1-25-1c-5-1-5-1-3-2 3-1 21-1 25 1zm143 7c0 2 0 2-11 2l-15-1c-4-1-4-1-2-2l15-1c12 0 13 0 13 2zm-142 1 2 2-13 1c-14-1-18-1-14-3 2-1 23-1 25 1zm138 6 4 3c0 1-2 2-9 1-12 0-22-1-22-2 0-3 21-4 27-2zm-159 2 12 1 11 2-4 1c-4-1-4-1-2 1 2 1 2 1-5 1-14-1-20-3-20-4s3-3 5-3l3 1zm162 8h-13c-19 0-21-2-2-2 10 0 14 1 15 2zm-100 9c9 0 8 0 8 23v20h-15l-17-1c-1-1-2-10-2-23v-21h10l16 2zm98 1c2 0 2 1 2 3v3h-5l-15-2c-8 0-11-1-11-2l2-2h27zm-50 20v21h-4l-17 1-13 1v-40c1-2 6-3 20-3h14v20zm-90-15 3 3c0 2 0 2-13 1h-14c-4 1-3-1 1-3s18-3 23-1zm140 6c5 1 1 2-13 2l-16-1 3-1h26zm-141 5c4 1 5 3 3 4l-11-1-14-1c-4 1-5 1-5-1l2-1 5-1c5-1 15-1 20 1zm143 3 1 2c-1 2-3 2-15 2-14 0-19-1-14-3 6-1 26-3 28-1zm-143 6 4 3c0 2-1 2-5 2-14 0-24-1-24-2 0-3 18-5 25-3zm144 7v3h-6a492 492 0 0 0-25-4l10-2 12-1h9v4zm-141 5 1 2h-25l12-2h12zm138 4c1 1-1 1-9 1l-11-2c-2-2 17-1 20 1zM195 450a603 603 0 0 1-77 6c-2 1-4 2-5 6-2 5-3 10-1 11 1 0 1 3-1 7v7c2 4 2 8 1 36v43h8c6 0 7 0 9 3 2 5 5 6 15 4a413 413 0 0 1 54-4c1 0 3-2 3-4 2-4 3-4 15-5h3v-27l1-41c1-18-1-42-3-42-3-2-13-2-22 0zm15 9 2 2-7 1c-7 0-11-1-8-3h13zm-77 5c0 1-3 3-8 4-4 0-4 0-4-2l4-2h8zm54 1a233 233 0 0 1 1 42l-1 3-17 1-21 1h-2v-15c1-22 2-28 4-30l8-1 13-1h15zm23 3c2 2 0 3-5 3l-7-1c-2-1-2-1 0-2h12zm-70 65-2 23v-28a1359 1359 0 0 0 2 5zm-7-57-5 1c-5 0-6-1-4-2 1-1 10-1 9 1zm77 1c2 2-1 2-9 2-6 0-6-1-4-2h13zm-77 8c0 1-2 2-6 2l-6-1c0-2 3-3 7-3s5 0 5 2zm0 9c0 1-2 2-5 2-4 0-4 0-3-1 1-2 8-2 8 0zm78 0-4 1-6 2c-3 1-5 1-4-1s12-4 14-2zm-79 10c0 2-1 3-5 3h-7c-1-1-1-1 1-3 3-3 10-2 10 0zm77-1-13 4c-2 0 0-2 5-3 5-2 8-2 8-1zm1 13c2 2 1 2-6 2-8 0-10-1-8-3 3-2 12-1 14 0zm-22 19-1 21h-39l-1-16c0-15 0-17 2-19 2-3 19-6 30-6h9v20zm-57-12c2 3 0 4-5 4-9 0-12-3-5-5 4-1 9 0 10 1zm78 1c0 1-1 2-6 3l-5-1c0-2 9-4 11-2zm-79 10c1 1-4 2-8 2-3 0-4-1-2-2h10zm0 8c2 2 0 2-6 3l-6-1c2-3 11-4 12-2zm80 8c1 1-5 3-9 3-3 0-3 0-2-2 2-2 10-3 11-1zm-81 2c4 1 2 2-3 2s-5 0-4-1c1-2 5-2 7-1zm58 10c0 1-6 2-27 3-11 0-20 1-21 2l-2-1 6-2 11-2h33zM944 454l-1 28a2555 2555 0 0 1 0 75l14 1c16 1 23 2 22 4v2c0 2 11 3 45 3l30 2h33c3 0 2-3-2-5l-2-2h41c4-1 5-6 5-15l1-8c1-3 2-72 0-76v-3h-11l-20-1-46-2a2082 2082 0 0 1-109-3zm98 8c29 1 40 3 38 5a355 355 0 0 1-86-5c0-2 1-2 12-2l36 2zm-69 0 9 2c3 2-1 2-11 1-16-2-18-2-17-3h19zm147 7c5 1 1 2-13 2l-14-1c0-2 2-2 13-2l14 1zm-87 1 1 16-2 18v3h-15l-25-3v-32l1-3h19l21 1zm-54 1c5 1 7 3 5 4s-24 0-29-1l-4-2c0-2 2-2 12-2l16 1zm93 1h3v15l-2 19-1 3-11-1-18-1h-7v-29l1-8h16l19 2zm12 21c0 24-1 30-2 30-2-1-2-1-3-15 0-10 1-35 3-37h1l1 22zm31-15c5 1 7 3 5 4l-3 1-12-2c-13 0-14-1-12-3h22zm-148 2c14 0 17 1 17 4l-4 1a457 457 0 0 0-29-3c0-2 1-4 3-4l13 2zm151 7c7 3 1 4-13 4-19-1-16-4 4-5l9 1zm-138 3 3 3c0 1-2 2-16 1l-17-1c0-1 2-3 5-3h25zm141 7c2 2-3 3-14 3-14 0-14 0-14-2l4-2c6-1 23 0 24 1zm-147 2 9 1c0 3-28 2-30-1h21zm145 8c0 1-1 2-6 2-8 0-20-1-18-2 1-1 6-2 16-2l8 2zm-88 5c2 3 0 37-2 38-1 1-36-1-37-2-1-2-2-12-1-25 2-13 1-13 23-13l17 2zm-62 0c15 2 15 3-1 3-13 0-16 0-16 4l14 1 15 1c2 1 1 5-2 4l-28-3c-1-1-2-9 0-10h18zm100 1h4v38h-36c-2-1-2-2-2-20l1-19 33 1zm41 7 8 1h-12l-14-1h18zm-28 20c0 11 0 11-2 9l-2-7c0-7 1-10 2-8 1 1 1 1 1-1v-5c-3-3-2-5 0-2 2 2 2 2 1 14zm35-12c5 4 3 4-11 3-12-1-15-1-14-3l15-2 10 2zm-134 3 1 2c-1 1-18 1-29-1-5 0-5-2-1-2 4-1 28 0 29 1zm134 8c2 0 3 2 3 3h-14l-14-1 4-4c3-1 17 0 21 2zm-136 0c2 0 3 1 3 3v2h-13l-17-2c-3 0-4-2-2-3h29zm137 10 2 2c-1 3-4 4-19 3-10-1-10-1-10-3s1-3 3-3c5-1 22 0 24 1zm-138 0c1 1-1 1-4 1l-7-1 5-1 6 1zm76 11h-35l15-1 20 1zM811 542l-2 3-1 4c0 2 0 2 2 2 4 0 8-4 8-7 0-2-3-4-5-4l-2 2zM51 549c-1 3-1 6 1 7 3 2 4 0 3-5 0-4-2-5-4-2zM1248 560l-4 10-5 13c-2 3-2 6-2 10 1 6 0 10-3 10-2 0-4 4-7 13-1 4-1 5 1 10l2 7h-2l-4 2h-1c-1-3-5-2-6 1 0 2-2 4-5 6-7 5-8 6-6 10 2 2 2 3 1 4-2 1-4 1-4-1 0-3-2-3-8 0l-8 2c-3 0-3 0-3-3 0-5-3-7-8-6-4 1-8 5-8 7l-3 5c-2 3-3 4-2 5 1 2 6 0 8-3l2-4c1-1 2-1 3 2 2 5 4 6 10 4 8-2 16-1 22 4l4 3c1 0 11-6 12-8 0-2-2-5-6-5-2-1-2-1 4-3s8-2 8 1c1 3 6 7 10 7l7 2c5 2 8 2 11 0s3-5-2-9c-5-3-5-4-5-7 3-12 3-12 5-9s4 2 8-2c4-6 6-8 4-11-1-2-2-2-5-2h-4l2-6 2-7c0-4-2-9-4-10l-3-4c-2-3-2-3 0-6 4-5 1-13-3-10-1 1-2 2-3 1l-2 2c-1 2-1 1-1-1 0-3 2-8 6-14l1-7c0-3-1-4-3-4l-3 1zm-5 71 2 6 2 5 1 3h-2c-3-3-8-13-8-14 1-3 4-2 5 0zM681 588c-4 5-2 28 3 40 2 5 3 5 5 5 2-1 2-1 2-6l-2-10-2-18c0-13-1-14-2-14l-4 3zM699 599c-2 1-3 6-1 6s6-5 4-6h-3zM534 605l-3 10c-2 9-3 10-7 7s-6-4-9-1l-5 1c-5-2-10 4-11 13-1 6 0 8 4 10 8 4 16 2 12-3-2-1-2-2 1-4l3-6c0-5 2-3 3 3 0 6 2 7 6 4 8-4 10-9 11-20l1-6 8 5c2 3 4 7 5 19l2 9c2 2 5 1 7-2 1-3 8-7 9-6l-1 2v9l4 1c3 1 2 3-1 5-5 3-8 8-6 9 1 1 3 1 10-1 9-2 10-2 14 0l12 1c11-1 17-4 15-7-1-3-5-3-12-2-6 2-7 2-9 1l-4-2c-4-1-5-4-2-9l2-6c-1-1-5-1-8 1l-4 1c-2 0-2-1-1-4 0-5-1-7-3-7-4 0-6 0-11 4l-7 3v-5c0-10-8-24-16-27-5-2-6-2-9 0zM953 611l-8 2c-7 1-6-1-15 14-5 9-5 10-2 10s6-3 10-10c5-8 8-9 13-4 3 2 4 2 9 2 6 0 7 1 4 7l-3 6c0 3 2 4 8 6 2 1 1 2-3 6-5 5-5 5-4 7 3 1 6 1 14-3 7-4 13-5 18-2 4 2 7 3 17 0l8-1-3 5c-5 4-5 6-1 7l6 3 5 2c3-1 10-9 10-10l-4-3c-3-1-3-1-3-5 0-3-1-4-4-5-4-2-11-2-16 0-6 1-6 1-7-2-1-2-2-2-16 0l-5-1c0-2-6-6-9-6h-2l3-6 2-9v-3h-16v-4c0-3 0-3-2-4l-5 1zM4 622l-1 4c0 2 3 6 5 6s2-3 1-5l-1-4c-1-2-2-2-4-1zM218 628c-1 2-3 4-3 7l-3 4-7-3c-10-5-14-3-11 5 2 3 3 4 12 8 13 6 15 7 22 4l6-3 1 2c1 4 7 4 17-1 10-4 11-4 5 4l-6 9c0 2 4 1 7 0l5-5 8-6c5-2 6-3 4-5-2-1-2-3-2-7l1-5h-4l-11 3-10 5c-2 0-2 0-1-2v-12c-1-1-4 1-15 10-6 5-6 5-8 3l-1-8c0-9-1-11-6-7zM912 637c-6 3-6 4-7 10-1 4-1 5 2 9 6 8 10 4 10-9 0-9 2-9 7-1 2 4 4 5 5 5 4 0 4-2 1-5l-5-7c-1-4-4-6-7-6l-6 4zM398 636l-2 3c0 2 11 12 16 15 3 1 4 2 4 5s0 3 3 4c4 1 6 1 6-2 0-2-1-3-3-5-3-1-3-1-1-2h5c3 2 14 2 25 0h4l-2 3c-5 6-3 8 3 5 10-4 17-14 12-18-1-2-2-2-9 0-9 3-9 3-9 1 0-3-3-4-8-1-6 3-8 3-7-1 0-2-1-5-3-5l-5 2-4 3-1-4c0-5-3-5-6-1l-4 4-6-4-6-4-2 2zM348 641c-2 2-4 2-7 2s-4 1-8 4l-4 8c0 5 5 5 7 0 2-4 6-5 6-2l2 6c1 5 4 7 7 4 2-1 2-4 1-13v-4c3 0 3 0 4 7l3 7c2 3 6 3 7 0 1-2 1-4-2-9-4-10-6-12-10-12l-6 2zM621 642c-4 5-5 7-2 9 1 1 3 3 3 5 2 4 5 7 8 6 1-1 3 0 6 1 5 2 10 3 12 1 1-2 1-2-1-4l-5-3c-2 0-8-5-8-6l-2-3c-3 0-4-2-4-5l-2-3c-2-1-2-1-5 2zM117 645c-2 1-2 2-1 4l-2 6c-2 3-2 6 1 7 2 1 4-1 4-4s2-4 4-2c4 3 9 3 11 2 2-3 4-2 4 1 1 2 1 2 6 3 6 0 11-1 12-4v-7l-1-5h-8l-15-1c-7-3-13-3-15 0zM477 645c-6 4-2 10 5 10 4 0 9-3 9-6l-11-6-3 2zM171 645c-3 2-6 5-6 8s4 5 6 5 3-1 3-4c2-4 4-4 9 0 3 3 4 4 7 3l5 1c3 4 8 2 8-1 0-2-8-9-11-10l-8-2h-13zM313 646l-6 4-4 3c-2 0-7 6-7 7h14c2-1 3 0 5 1 4 3 9 4 9 2 1-2-7-17-9-18l-3 1zM1094 648l-8 3c-5 2-6 2-7 1h-9c-7 0-8 0-9 3-1 2-1 2 1 4 3 3 16 4 20 1l5-4c2-1 2-1 6 1 6 2 9 3 12 0 3-2 2-4-2-4-2-1-2-1-2-4s0-3-2-3l-5 1zM381 651c-1 2-1 2 1 6s5 5 10 4c4-1 8-5 8-6s-9-5-14-6c-2-1-3-1-5 2z"/><path d="M1266 653c-4 1-4 4-2 7 2 4 5 4 10 2l6-4c1-2-2-4-5-4l-4-1c-1-2-2-2-5 0zM494 657c-5 3-9 4-15 4-3-1-4-1-5 1s0 5 2 7h6l8-2c3 0 4 0 7-6 4-7 3-9-3-4zM1121 657c-3 2-4 3-1 5s7 1 10-1c5-5-1-8-9-4zM278 658c-3 2-2 5 2 5s6-1 6-3c0-3-5-4-8-2zM379 662c-2 2-2 5 0 5 3 0 5-3 5-5-1-2-3-3-5 0zM1146 663c-2 2-2 5 0 5 3 0 5-2 5-4 0-4-3-4-5-1z"/></svg>