<svg data-name="Layer 1" xmlns="http://www.w3.org/2000/svg" viewBox="0 0 122.9 122.9"><path d="M61 0a61 61 0 1 1-43 18A61 61 0 0 1 61 0Zm4 55a7 7 0 0 1 3 3h9a3 3 0 0 1 1-3 3 3 0 0 1 3 0l6 4a3 3 0 0 1 1 2 3 3 0 0 1-1 3l-6 4a3 3 0 0 1-4-3h-9a7 7 0 1 1-10-9V42a3 3 0 0 1-4-4l5-6a3 3 0 0 1 2-1 3 3 0 0 1 2 1l5 6a3 3 0 0 1-3 4v13Zm22 44a3 3 0 0 1-6 3l-2-4a3 3 0 0 1 5-3l3 4ZM36 24a3 3 0 0 1 5-3l3 4a3 3 0 1 1-6 3l-2-4Zm66 57a3 3 0 1 1-3 6l-4-3a3 3 0 0 1 3-5l4 2ZM21 41a3 3 0 1 1 3-5l4 2a3 3 0 0 1-3 6l-4-3Zm86 17a3 3 0 0 1 0 6h-5a3 3 0 0 1 0-6Zm-91 6a3 3 0 1 1 0-6h5a3 3 0 0 1 0 6Zm83-28a3 3 0 0 1 3 5l-4 3a3 3 0 0 1-3-6l4-2ZM24 87a3 3 0 1 1-3-6l4-2a3 3 0 0 1 3 5l-4 3Zm57-66a3 3 0 0 1 6 3l-3 4a3 3 0 1 1-5-3l2-4Zm-40 81a3 3 0 0 1-5-3l2-4a3 3 0 0 1 6 3l-3 4Zm17-86a3 3 0 0 1 6 0v5a3 3 0 0 1-6 0v-5Zm6 91a3 3 0 1 1-6 0v-5a3 3 0 0 1 6 0v5Zm36-84a55 55 0 1 0 16 38 54 54 0 0 0-16-38Z"/></svg>