<svg xmlns="http://www.w3.org/2000/svg" viewBox="0 0 256 256" xml:space="preserve"><path d="M97 12c-13 3-24 14-28 27l-1 19c4 26 24 52 63 80 10 7 8 7 17 1l14-10c29-24 45-45 49-67a41 41 0 0 0-13-42 37 37 0 0 0-24-9l-10 1c-8 1-16 6-21 12l-3 3-4-4c-5-5-10-8-16-10-4-2-5-2-12-2-6-1-7 0-11 1zm19 9c9 2 16 8 22 18l2 4 3-5c5-7 10-12 16-15 10-5 19-5 29 0 6 3 12 10 14 17 1 5 2 12 1 18-4 20-19 41-47 63l-16 12-16-12c-20-16-33-31-41-45-4-9-6-17-6-25 0-10 2-16 9-23 5-4 9-7 16-8 3-1 11 0 14 1z"/><path d="M226 125c-5 1-9 4-17 10l-28 22-9 6-2-2-5-2c-6-2-9-2-26-2-18 0-18 0-35-3-13-3-19-4-26-4-10 0-16 2-22 6l-25 23c-21 21-21 21-21 23s0 3 21 23l20 21h4l13-13 15-14c6-2 9-3 17-3l20 1h35c9-2 14-4 23-11a428 428 0 0 0 68-72l-6-7c-4-3-9-4-14-2zm8 9 1 1-18 21c-14 16-40 40-50 47l-14 5h-30c-20-2-28-2-37 1-8 2-10 4-23 16l-9 10-17-16-16-17 20-19c21-22 21-22 28-23l19-1 16 4c17 3 19 3 34 3 17-1 25 0 28 4 2 1 3 4 2 5-2 3-12 6-21 7h-25l-10-1c-8 0-20 1-24 3-2 1-3 5 0 7h33c14 1 23 1 33-1 9-2 15-4 19-8 3-3 4-5 4-9v-2l9-7a468 468 0 0 0 37-28c4-3 8-4 11-2z"/></svg>
