<svg xmlns="http://www.w3.org/2000/svg" viewBox="0 0 122.9 70.4" style="enable-background:new 0 0 122.88 70.36" xml:space="preserve"><path d="M98 14v37l1 2 2 1h11l3-1 2-5 3-31-1-4-5-1h-12l-3 1-1 1zM87 53l-1-1-16-29c-1-3-3-3-5-2l-3 3-2 1-3 3-6 2h-4a7 7 0 0 1-5-7v-1l9-10h-5l-7 4H28v31h6l1 1 8 13 3 4c1 1 2 2 5 2a6 6 0 0 0 3-1l-4-9v-2l3 1 5 9 5 1 4-2-8-12a2 2 0 0 1 3-2l8 13h4l3-2-7-14 1-2 2 1 8 13 3 1 2-1 2-2-1-3v-1zm2-3h5V15l-5-4-3-2-9-5a26 26 0 0 0-12 0l-3 1-3 2-3 4-1 1-10 12 1 1 2 2h3l4-2 3-2 2-2 4-3c3-2 6-2 9 3l16 29zm6 3h-4a7 7 0 0 1-3 8l-4 2h-4l-5 3h-6c-1 2-3 3-5 3-3 1-5 0-7-1l-3 2h-3c-4 0-6-1-7-2l-4-5-7-12h-5l-2 4-6 2h-9c-2 1-4 0-6-2l-2-8-3-29 1-7 6-3h13l5 2c2 0 2 2 3 3h10l7-4h9l3-4V4l3-2 4-1 7-1 7 1c4 1 7 3 10 6l3 1 5 4v-1c2-2 4-2 6-2h12c3 0 5 0 7 2l2 6-3 32c0 2-1 5-3 6-1 2-3 2-5 2h-10l-5-1-2-3zM14 41a2 2 0 1 1 0 4 2 2 0 0 1 0-4zm94 0a2 2 0 1 1 0 4 2 2 0 0 1 0-4zm-83-9V15l-1-3H7l-3 1-1 4 3 30 2 6 3 1h9l4-1 1-5V32zm48-11z"/></svg>