<svg height="800" width="800" xmlns="http://www.w3.org/2000/svg" viewBox="0 0 489 489" xml:space="preserve"><path d="M306 157c-34-20-89-20-122 0s-34 51 0 71 89 19 122 0c34-20 34-52 0-71zm-16 31-8 2-4 1-1-2c-2-3-5-6-9-8l-2-1-4-1c-5-2-10 1-10 4l3 5 5 9c5 9-5 18-21 19-6 1-12 0-17-2l-6 1-5 3h-5l-4-2-2-1c-2-1-2-2 0-3l4-3c3-1 3-1 0-3l-7-8c-1-2-1-3 2-4l8-2 4-1 1 2 8 8 2 2 7 2c6 2 12-1 11-5l-1-4-7-10c-2-5-1-11 6-15 9-4 19-4 29-2 5 2 5 2 8 0l3-2c3-2 4-2 6 0l2 1c6 3 6 3 1 6-4 2-4 2-1 5l6 6c1 1 0 2-2 3zm61 65c-9 6-24 6-34 0-9-5-9-14 0-19 9-6 24-6 34 0 9 5 9 14 0 19zM173 151c-9 5-24 5-34 0-9-6-9-15 0-20s24-5 34 0c9 5 9 14 0 20zm304 60L211 58c-15-9-40-9-56 0L12 141c-15 8-15 23 1 32l266 154c15 9 40 9 56 0l143-83c15-9 15-24-1-33zm-139 86-6-4c-16-9-41-9-57 0l-3 2L65 176l6-3c15-9 15-24-1-33l-5-2 85-50 5 3c15 9 41 9 56 0l5-3 208 120-8 3c-16 9-16 24 0 33l8 3-86 50zM6 204c6-4 17-3 23 0l279 161 151-87c6-4 17-4 23 0 7 3 7 10 0 13l-160 93c-7 5-20 5-28 0l-6-3-4-2L5 218c-7-4-7-11 1-14zm477 138-160 93c-8 4-21 4-29 0l-5-3-4-3L5 268c-7-4-6-10 1-14s17-3 24 1l278 161 151-88c6-4 17-4 24 0 6 4 6 10 0 14z"/></svg>