<svg version="1.0" xmlns="http://www.w3.org/2000/svg" width="809.3" height="748" viewBox="0 0 607 561"><path d="m347 35-48 16-41 13-94 31-80 25v366l2 1 14 1 79 11 176 24 13 2V277l-1-248-20 6zm-42 52c4 1-10 4-16 3-5 0-4-1 3-3 5-2 7-2 13 0zm17 4-6 2c-5 2-8 2-11 1l-5-1 8-2c7-2 12-2 14 0zm-39 2c2 0 1 1-5 3l-12 1-4-2 7-2c6-2 8-2 14 0zm53 2c5 0 4 1-4 3-6 2-7 2-11 1l-4-2 6-2a168 168 0 0 0 9-2l4 2zm-37 2c3 1-12 4-17 3h-4l6-2c6-2 11-2 15-1zm-38 2c1 1 0 1-4 2-7 3-14 3-16 1-4-2 14-5 19-3zm55 3-7 2c-5 1-7 2-11 1l-5-2 8-2 12-1 3 2zm-40 1c2 0 1 1-5 3-8 2-13 2-14 0-1-1 9-4 14-4l5 1zm-38 3-8 3c-7 1-9 2-12 1l-3-1 7-3c4-1 8-2 11-1l5 1zm54 1c2 1 2 1-2 2-12 3-12 3-16 2l-4-1 7-2c6-2 11-2 15-1zm-42 2 3 1-17 4c-6 0-5-2 2-4 9-2 8-2 12-1zm-38 3 2 1-7 2c-7 2-15 2-15 0 0-1 11-4 15-4l5 1zm54 1 3 1c0 1-16 4-20 3-4 0-4 0 5-3 8-2 8-2 12-1zm-38 3c4 1-13 5-18 4-4 0-3-1 4-3 6-2 10-2 14-1zm-42 2 4 1-6 2c-6 2-15 2-14 0l12-4 4 1zm56 2c3 0 3 0-5 3-8 2-14 2-14 0 0-1 10-4 14-4l5 1zm-38 3c2 1-12 4-16 3-4 0-3-1 4-3 5-2 10-2 12 0zm-39 1 3 1-6 2c-7 2-11 2-14 1-2 0 0-1 5-3 9-2 8-2 12-1zm175 98v98h-50l-102-1h-53v-36h4l13-1 30-1h20V157l20-4 22-6c2 0 2 0 2 8s0 9-2 9l-18 5c-14 3-16 4-17 6l-1 40v38l2 2c3 4 1 3 42 2a2668 2668 0 0 1 40-4l3-3v-45c0-57 2-53-23-47l-15 3-1-9c0-6 0-7 2-8l81-20 1 98zm-123-96c3 1 2 1-6 3-6 2-10 1-10 0l12-4 4 1zm-35 3c2 1-12 4-16 3s-4-1 4-3c5-2 11-2 12 0zm14 3c4 1-11 4-15 3-2 0-2 0 3-2 7-2 8-2 12-1zm-44 31c28 5 33 6 35 8l2 2v38l-1 41c-2 5-3 5-38 3a2698 2698 0 0 0-38-6l-2-2v-42c0-37 0-42 2-44 1-2 5-4 7-4l33 6zm137 41-1 44c-2 1-72 4-73 3v-73l30-7 1 3c0 3 0 4-2 4h-2l2 2c6 7 8 18 8 32-1 11-3 17-7 22l-3 4 10 1c12 0 15-1 20-8 4-6 6-13 6-23 0-11-3-19-8-25l-9-5h-5v-5l1-5 30-7h2v43zm-183-40a1157 1157 0 0 1-2 41c0-39 0-45 2-41zm182 166h52v55h-12l-134-7-59-3v-36l34 1h33v-11h17l69 1zm-23 60 65 3h10v4l-1 4-6-1-122-6h-9v-4c0-4-6-4 63 0zm-30 13 67 3 35 1h3v48l-1 47-70-8-121-14-47-5-3-1v-71h7a18349 18349 0 0 1 130 0z"/><path d="m322 138-3 1v63l1 64h9v-65c0-71 1-65-7-63zM331 202a776 776 0 0 0 2 0 776 776 0 0 0-2 0zM307 141l-4 2-1 63v63h9V140l-4 1zM314 205a751 751 0 0 0 2 0 751 751 0 0 0-2 0zM260 260zM276 263a1307 1307 0 0 1-59 3h-7v9h9a1640 1640 0 0 1 70-4h4v-9h-7l-10 1zM247 283l-96 2h-12v31h8l99 1 90 1v-14l-1-19c0-4-1-5-2-5l-86 3zM144 169c-10 2-17 7-22 17-8 14-8 34 1 47 4 6 12 11 18 13s17 1 22-2c7-4 13-12 16-19 3-8 4-22 1-30-5-18-20-29-36-26zm6 8 3 11c0 6 0 7-2 7-1 0-3-1-4-5l-7-9-5-5 4-2c7-3 9-3 11 3zm10-3c3 2 3 3 4 8 1 4-1 12-3 15s-2 3-4 1c-2-1-2-2-1-5l1-12v-8l3 1zm-24 10 7 7 4 4-3 2c-2 2-2 2-5-1l-9-4-5-4 5-7 6 3zm38 6c1 2 2 5 1 7 0 3-6 9-10 10-3 1-4 0-4-2-1-2 0-3 2-6 3-3 7-10 7-13s2-1 4 4zm-41 7c6 2 7 4 6 7 0 2-1 2-10 2h-9v-5c2-8 2-8 13-4zm20 2c4 2 5 4 5 10 0 4-1 5-3 7-4 5-10 3-12-4-2-5 0-10 3-13h7zm24 15h-15c-3-1-1-5 3-5 3 0 10-3 12-5l1 4-1 6zm-38-3-16 12c-1 0-4-11-3-12l14-2c4 0 5 0 5 2zm2 6c1 1 0 3-2 9l-4 10-1 3-8-9c0-2 12-15 14-15l1 2zm32 3 3 1c0 3-2 7-4 7l-12-6c-2-2-3-3-2-4 1-2 1-2 6 0l9 2zm-26 2 1 6a58 58 0 0 0 5 15h-11v-10c1-12 2-13 5-11zm9 2 8 6 6 4-4 3-5 4c-2 0-6-7-9-13v-6c2-1 3-1 4 2z"/><path d="M147 201c-4 4-4 13 1 16 6 4 12-10 6-16-3-2-4-3-7 0zM229 181c-12 9-15 35-5 49 2 4 7 8 11 8 3 0 8-4 11-11 2-6 3-7 3-19-1-10-1-12-3-17s-7-12-9-12l-2-1-6 3zM138 358l1 15h14a1945 1945 0 0 0 75 4l57 2 46 2h4v-36h-47l-99-2h-51v15zM151 406l-8 1 51 3 86 6 48 3h9v-3c0-3 0-4-2-4a4800 4800 0 0 0-184-6zM101 439v32h4l99 12 100 12 32 3 1-37v-37h-3a4594 4594 0 0 0-194-13l-37-3c-2 0-2 1-2 31zM374 277v247h4a9046 9046 0 0 1 121-15h4V71l-43-14-85-28-1 247zm29-228 7 2v8l-1 8h-4l-7-2-4-1v-9l1-8 8 2zm-11 8-1 8 8 2 7 3c-1 1-14-3-15-5l-1-5 1-7 1-4v8zm64 49c12 5 23 22 27 40 2 10 1 30-2 40-4 15-15 30-26 35a31 31 0 0 1-33-5c-1-2-1-2 3 1 13 7 30 1 40-14 14-22 14-58-1-81-9-14-25-20-38-13-6 3-5 2 1-2 10-5 19-6 29-1zm-17 11 3 17v11l-2-1c-2 0-3-1-4-4-2-6-6-13-10-18-4-3-4-4-3-6 2-2 9-5 12-5 1 0 2 1 4 6zm11-2c4 2 6 7 5 18-1 7-4 18-6 18l-2-2c-2-3-2-4-1-10s1-22-1-25c-1-3 1-2 5 1zm-29 12c4 3 9 9 12 14 1 4 1 4-1 6l-2 3-6-5-10-7-4-3 6-11 5 3zm47 16c0 6-5 14-11 18-4 2-6 1-6-3-1-3 0-4 2-7 4-5 8-14 9-20v-4l3 6 3 9zm-50 4 7 4c3 2 3 2 2 6l-3 4-10-2h-9v-3l1-8c1-5 1-5 4-4l8 3zm24 3c3 1 6 7 6 14 0 14-11 20-16 9-6-12 1-27 10-23zm29 13c0 7 0 8-2 9-3 1-11 2-15 1-3-1-3-2-3-4 0-4 0-4 4-4a29 29 0 0 0 16-9v8zm-45 4c0 2-1 3-3 5l-9 8-6 4-3-17 18-3c3 0 3 0 3 3zm3 9c1 2 1 4-1 9l-5 14-2 8c-1 1-5-4-8-9-1-4-1-4 1-9l13-16 2 3zm25 1 9 3 6 1c0 3-4 11-5 11-2 0-8-3-12-7-4-3-5-5-4-8 1-2 1-2 6 0zm-18 8 1 6 2 12c4 13 4 12-1 12-9 0-9 0-9-11 1-15 3-23 5-22 0 0 2 1 2 3zm11 1 8 9 6 5-10 11c-2 0-11-22-11-27l4-2 3 4zm9 45c7 3 16 13 20 22 5 11 7 18 8 32 0 17-1 26-8 39-12 24-33 32-51 20l-4-3 5 2c15 7 32 0 41-19 17-31 8-76-17-89-6-3-18-3-24 0l-4 1 12-7c6-1 16-1 22 2zm-17 12 3 17v10h-2c-2 0-3-1-4-3-1-5-6-14-10-19l-4-5c0-2 13-7 14-6l3 6zm11-3c4 3 5 7 5 18a37 37 0 0 1-6 19l-2-3c-2-2-2-3-1-9s1-22-1-25c-1-3 1-3 5 0zm-27 15c3 3 7 7 8 10l3 6-2 2-3 3-4-4-9-7-6-4c0-2 5-11 7-11l6 5zm43 7c2 7 2 11-1 17-2 3-8 8-11 8-3 1-3 1-3-3-1-3 0-4 3-8 3-5 8-17 8-20 0-4 2-1 4 6zm-48 11c10 5 10 5 9 10l-1 3h-7l-10-1h-4v-6l2-9c0-2 3-1 11 3zm26 3c4 4 5 17 2 23l-4 5c-9 4-16-12-10-24 3-6 7-7 12-4zm25 22h-16c-2 0-2-1-2-4 0-2 0-3 5-4 3 0 7-3 10-4l4-4 1 7c0 6 0 8-2 9zm-43-5-2 4-9 8-7 5-3-17 17-3c4 0 4 0 4 3zm3 9c1 2 0 4-2 12a134 134 0 0 0-6 19c-2 0-9-10-9-13s13-21 15-21l2 3zm28 2 9 2c3 0 3 0 1 7-1 5-2 5-4 5-4-1-13-7-15-10s0-8 3-6l6 2zm-21 7 1 6 2 12c4 13 4 12-1 12l-7-1-2-1v-10c1-14 3-22 5-21 0 0 2 1 2 3zm11 2 9 8 5 5-10 11c-2 0-8-13-10-21v-7c2-2 3-1 6 4zm8 45c13 6 24 23 28 41 2 10 1 30-2 40-4 15-14 30-25 35-10 5-23 4-31-3-2-2-2-2 3 0 19 6 36-6 44-33 3-10 3-32 1-42-7-26-26-42-43-36-6 2-6 2-2-1 10-5 18-5 27-1zm-17 12c2 6 5 24 4 26-2 4-5 1-7-5s-6-11-10-16l-3-5c0-2 9-6 12-6 1 0 2 1 4 6zm15 2c2 5 2 18-1 25-1 4-3 7-4 7l-2-2c-2-2-2-3-1-7l1-17-1-13 3 2 5 5zm-32 9 9 10 4 6-3 3-2 3-5-4-10-7-5-4 5-10c2-2 2-1 7 3zm44 7 2 9c0 7-6 16-13 18h-3l-1-4c-1-2-1-3 2-7 4-5 8-12 9-18l1-4 3 6zm-48 12c10 5 10 5 9 10 0 3-1 4-3 3a440 440 0 0 0-19-2l1-8c1-7 1-7 4-6l8 3zm28 6c5 8 3 24-5 26l-4-1c-8-3-8-24-1-28 3-2 7-1 10 3zm24 19c-2 2-9 2-13 2-5-1-6-2-6-6 1-2 2-3 4-3 5-1 10-3 13-6l2-3 1 8-1 8zm-44-7v3c1 1-1 3-3 5l-10 7-5 5-1-5-2-9v-4l7-1c10-2 14-2 14-1zm1 23-4 14c-1 5-2 6-3 5-3-3-7-9-7-12 0-4 5-12 11-18l3-4 2 3c1 2 1 4-2 12zm27-11 10 3h6l-2 5-2 7c-1 2-10-3-15-8-4-4-4-4-3-6l2-3 4 2zm-18 6 1 8 5 22c1 2 1 2-3 2l-8-1c-2-1-2-1-2-9l4-23 3 1zm12 5c2 3 6 7 9 8l5 4-11 11c-2 0-8-14-10-25-1-3 0-3 3-4l4 6z"/><path d="M434 154c-2 4-2 16 1 20 6 9 14-6 9-18-2-4-2-5-5-5-2 0-3 1-5 3zM437 277c-9 5-5 30 4 25 2-1 5-8 5-13 0-4-3-11-5-12h-4zM434 406c-4 5-3 17 1 22s10-1 10-11c0-11-6-17-11-11z"/></svg>