<svg version="1.0" xmlns="http://www.w3.org/2000/svg" width="488" height="418.7"
    viewBox="0 0 366 314">
    <path
        d="m189 34-7 3-4-2c-5-3-8-3-14 0-8 4-8 4-8 17l-1 11-5 2-38 14c-5 1-9 3-9 4l-9 4c-14 4-17 9-21 28l-3 14c0 1-3 3-7 4l-6 3-4 7c-2 5-5 8-7 9l-3 2v18l6 3c5 3 6 4 6 6a294 294 0 0 0 11 48l20 11 19 10v11c0 10 0 13 2 16 3 7 7 6 15-3l5-6-1-6 1-5 2 2c0 2 3 4 22 13 12 6 22 11 23 10l4 1h5l3-2v4c0 4 1 5 4 9l6 5 7-6 7-5v-22l8-3 7-6c0-2 4-4 20-12l20-9v15l5 4 5 3 7-7 7-7v-17h3l5-2 4-3c3-2 4-3 8-20l4-23v-6l5-2 4-2v-9c0-9 0-10-3-12l-4-2-6-6-10-8-5-2-11-19-9-19-5-1-32-10-26-10-1-16V38l-7-3-7-4-7 3zm12 8-8 4-7 2 5 3 5 4-3 2c-2 2-2 2-9-2l-6-4-6 1c-4 2-5 2-7 1-3-1-2-3 2-3 4-1 5-3 1-5l-4-3 4-2c3-1 4-1 8 2l5 2 5-2 8-3c1-1 2 0 4 1l3 2zm3 3c0 2-9 6-10 4v-1l6-2 4-2v1zm-40 2-1 1-1-1 1-1 1 1zm40 8-1 6c-1 1-1 0-1-4 0-3 0-5-1-4h-1l4-3v5zm-28 2c0 1-12 6-13 5-2-1 0-3 5-5 7-2 8-2 8 0zm9 2 5 5v1c-2 0-11-7-11-8 0-2 1-1 6 2zm14 0-3 4c-3 2-3 2-3 0l2-3c3-2 4-2 4-1zm-23 6c0 3-1 5-7 10l-7 7v-4c0-4 1-5 6-10l7-6 1 3zm9 1c7 4 7 7 0 14l-6 5v-3c0-4 1-5 4-9l4-5-4 3-4 4v-4l1-6v-1h-1c0-2 1-1 6 2zm19 1-1 5-1-4 1-5 1 5zm-37 1c-4 4-5 4-5 1 0-2 1-3 3-4 5-2 6-1 2 2zm32-3-3 3-3 2 3-3 3-2zm-3 14-3 4v-5c0-3 1-5 3-7l3-3v4c0 4 0 5-3 7zm-37-6c0 4 0 4-24 14l-20 8 33 10 32 11 27-11c25-10 30-13 29-13l-14-5c-13-4-14-5-15-7v-3a3670 3670 0 0 1 55 21l-83 33-92-33c-1-2 2-3 11-6l10-4c0-1 46-19 50-19l1 3zm5 18c-11 11-12 12-14 11h-4a75 75 0 0 1 16-17l7-8 7-7v4c0 4 0 4-12 17zm40-13c0 7 0 7 3 7 2 1 2 1-10 13l-15 14-6-1 13-14 13-13v-4c0-5 0-7 2-7v5zm-14 3c0 4-1 5-11 16-11 10-12 11-14 11l-4-2 7-8c7-6 8-7 8-5l2 2 1-4c0-3 1-4 5-9l6-5v4zm-3 17-13 13-3-1-3-2 11-11 11-9 2 1 1-3c0-1 1-4 3-5l3-3v4c1 3 1 4-12 16zm-36-5c-7 8-9 9-12 6-2-1 12-16 17-17 2-2 3-2 3 1 0 2-1 4-8 10zm17 5-9 8-3-1-3-1 11-12 12-11v4c0 4 0 4-8 13zm-24-7c-7 6-8 7-10 6-5 0-5-1-1-5 3-2 13-8 17-8l-6 7zm72-3-7 8a39 39 0 0 1-20 12l10-11c10-9 11-10 13-10l4 1zm7 3c2 1-4 5-11 8l-6 2 6-6c5-6 7-6 11-4zm-92 2c-2 3-3 3-5 2l-2-1 3-1 5-2c3-1 3-1-1 2zm96-1-2 2h-1c1-2 3-3 3-2zm43 7c0 1-17 20-19 20v-4c0-2 1-4 4-7l3-4-3 3c-4 3-4 3-4 1s1-3 3-4h5l1-1 4-3c5-2 6-2 6-1zm-172 6-4 4-5 3-1 20c-1 12-2 21-1 22l64 25 6-23c6-26 6-27 13-24 6 2 6 2 4 4l-3 7a2534 2534 0 0 0-6 42l9 4 9 3 15-7 15-7-1-18c0-15-1-18-3-26l-2-10 40-17 1 7 4 24 5 18 28-13c11-5 11-5 14-4l5 6 6 6 3 4-24 13-8-3-6-3-9 3-8 2v8l-11 3c-6 3-12 4-15 4-4 0-7 1-11 3l-7 4 1 5 2 5c0 2-17 9-29 14l-11 3-14-6c-18-7-18-7-18-9 0-4-17-12-73-36l-18-8 8-16 8-4 6-2 2-15 5-17 1-3 6 2 8 3zm175 0c0 2-1 3-10 12l-10 9-1-3 9-11 10-10 2 3zm-166 4-1 2c-2 1-2 1-2-1l2-2 1 1zm169 1c1 2 0 3-10 13l-11 11-1-3c-1-2 0-4 9-13l11-10 2 2zm-175 17v19l-5 2-6 2 1-16 1-18c0-2 6-7 8-7l1 18zm11-17c2 2 2 2-3 6l-5 5v-4l2-6c3-2 3-2 6-1zm7 3c1 1 0 2-7 9l-8 8v-3c0-4 1-5 5-10 5-5 7-6 10-4zm7 3-8 10-9 9 10-8c9-10 11-11 14-9 1 1-1 4-12 15-9 8-15 14-16 13-2-1-1-4 1-7l2-2-2 1c-1 1-2 1-2-3 0-3 0-4 9-12 8-9 10-10 13-7zm153 0c1 2 0 4-10 14l-12 11-1-3c-1-2 0-4 10-13l11-11 2 2zm-139 5c1 0-5 7-13 14-14 14-14 14-17 13l-2-1 14-14c13-14 15-15 18-12zm142 1c1 2 0 3-8 11-10 10-17 14-17 11l23-24 2 2zm-129 4c1 0-5 7-13 14-13 14-14 14-16 13l-3-1 14-14 14-15-14 14-16 14-3-1c-1-1 1-4 12-15l14-14 5 2 6 3zm132 2c1 2 1 3-1 4l-15 8 7-7 7-7 2 2zm-125 0v3l-14 12-14 13-3-1c-1-1 1-4 12-14 13-13 16-15 18-13zm40 4v4l-14 15-15 14v-4c0-3 2-5 14-18l14-14-14 13-12 12v-5c1-6 10-15 18-19l8-3 1 5zm7 5 3 21v15l-3-4-4-3v-19l1-18 3 8zm-49 0a106 106 0 0 1-19 22l-3-1c-1-2-1-3 11-14l12-12-1 5zm22 1-6 4c-1-2 7-8 10-9l-4 5zm110-2c1 1-29 16-31 16v-2l14-8c15-7 17-8 17-6zm-105 25-16 15v-4c1-4 3-6 16-19l14-15 1 4c0 3 0 4-15 19zm-30-12c0 3-1 5-4 8-4 4-5 4-7 4l-3-2 15-15-1 5zm34 16c-7 8-12 12-16 14l-6 2 16-18 16-16 1 4c0 3 0 4-11 14zm-61-7 23 9-1 3-1 4c-1 1-24-8-55-20-2-1-2-1 2-3l6-2 26 9zm70 8c-3 2-7 5-14 7l6-7 9-10 1 4-2 6zm-129 2 18 7v4c0 3 0 4-3 5s-4 1-19-7l-16-9v-10h2l18 10zm84-9c0 3-2 4-4 4-1-1-1-1 1-3 3-3 3-3 3-1zm163 3c-1 3-1 3-13 9l-13 5v-2c0-2 2-4 11-8l12-7c2-2 3-1 3 3zm-116 4-1 1-1-1 2-1v1zm73 16v16l-2-3c-2-2-2-4-2-15 0-13 0-14 3-14l1 16zm9-13 5 2v35l-37 18-46 23-9 4 2-5 2-6 1-15v-13l9-5c10-4 10-4 10 7l1 10v4l9-4 9-4v-17l-1-18 21-7v34l9-4 9-5v-37l6 3zm-73 7-13 7-14 6-5-2-6-3 15-8 15-7 4 3 4 4zm53-5h2l2-2v3c0 3-1 5-3 7l-2 3v-6l1-7v2zm44 11c-1 12-7 34-9 35l-3 1 4-16c3-10 4-16 4-21 0-7 0-8 3-8l1 9zm-7 0c0 3-1 10-4 17l-4 17-1 5h-4c-3 0-10 3-35 15-27 12-32 15-32 17 0 1-3 3-14 8l-14 7 1-7 2-6 15-7 48-24 33-16v-28l4-2 4-2 1 5zm-206-4c-1 2-3 2-3 1l2-2 1 1zm-13 18c1 10 1 11 5 11 2 0 2 0 2 5v5l7 3c5 4 6 4 9 3 2-1 3-4 1-13l-1-7 6 2c4 2 5 2 6 1l2-3c2-2 2-2 2 1 0 4 0 4 3 5s3 2 5 11l3 11c3 3 4 0 4-9l1-8 5 2 4 2v17l5 3 5 2 1-8 2-8 7 4 8 3v45l-18-9-19-11c0-2-3-4-12-8-9-5-12-6-14-6-3 1-6 0-20-7l-17-10-2-3-2-5-7-38c0-1 3 0 9 4l9 5 1 8zm19-15-8 8c-2 0-1-6 1-9 2-1 3-2 4-1l3 2zm165 7-3 3v-4l2-7 3-2v4c0 2 0 4-2 6zm-159-5-14 15-1-3c0-3 1-4 5-9 5-5 8-6 10-3zm7 4 6 3h1c3 0 6 1 5 3-1 1-13-3-12-5h-5l-4 1c-2 1-2 1 0-2l4-3 5 3zm122 5 1 14c0 7 0 7-2 6-2-2-2-5-3-15 0-11 0-12 2-12 1 0 2 1 2 7zm-147 3-1 9c-2 0-3-2-3-9 0-5 0-7 2-8l2-1v9zm140-8-4 4c-3 4-4 4-4 3-1-3-1-4 3-6s5-2 5-1zm39 2c0 2-1 3-2 3-3 1-4 0-1-2 3-4 3-4 3-1zm-42 10-3 3-1-3c0-3 0-4 3-7l3-3 1 4c0 3 0 4-3 6zm-111-6 5 2-2 4-3 4-7-2c-5-2-6-3-5-4 0-3 4-6 5-6l7 2zm-15 2-1 5-4 5-3 3v-3c0-4 1-5 4-9l5-4-1 3zm32-1c1 1 0 2-3 5l-4 5 5-4 5-4-1 1-1 4c0 5-3 8-6 6-2-1-3-1-3-6l1-7h7zm139 4c4 3 4 4-3 7l-5 2v-5c0-6 0-6 5-7l4 3zm-129 2 2 3c0 2 5 4 17 9l18 7 10-3 9-3 1 5c-1 5-1 5-7 7-11 6-12 6-36-5l-20-10v-5c0-7 1-9 6-5zm88 2-3 6c-2 2-2 2-3 0-1-3-1-4 2-7s4-3 4 1zm-128 3c0 2-1 4-4 7l-5 3c-2-1-1-6 3-9 4-5 6-5 6-1zm31 9c0 4 0 7-1 6l-1-7v-5l2-2v8zm97-7-1 2-1-1 1-1h1zm-127 5c1 4-3 8-6 6l-2-2 7-7 1 3zm133 6c0 1-10 5-11 4l-1-4c0-4 0-5 3-6s4 0 6 2l3 4zm-132 0-1 3-2-3h3zm48 3-1 3c-2 1-2 1-2-1 0-3 1-4 3-2zm3 4c0 3-3 8-5 8s-1-6 1-9c3-2 4-2 4 1zm39 26c-9 31-10 32-10 3v-22l7-3 8-3v4l-5 21zm94-23-1 3v13c-2 1-2 1-2-8 0-7 0-9 2-9l1 1zm-10 20-2 1c-2 0-2-2-2-8 0-8 0-9 2-10 3-1 3-1 3 7l-1 10zm-124-14c0 2 0 2-1 1-2-1-2-2-1-3 2-2 2-1 2 2zm27 20c0 22 0 22-2 21s-2-2-2-22 0-21 2-21 2 1 2 22zm-65 7c0 12 0 13-1 12-3-3-3-27 0-26l1 14zm9-5c0 4 0 8-2 8v-8h-1c0-3 2-2 3 0zm1 10-1 2h-2l1-2h2zm83 3-1 2h-2l1-2h2zm-9 10c0 10-1 12-3 10-2-1-2-3-2-10 0-6 0-8 2-9l2-1 1 10zm8 1c-2 1-2 1-2-3l1-5c1-1 2 0 2 3l-1 5zm0 7c-2 1-2 1-2-2l1-4c1-1 2-1 2 2l-1 4z" />
</svg>